<?xml version="1.0" encoding="UTF-8" standalone="no"?>
<!-- Created with Inkscape (http://www.inkscape.org/) -->

<svg
   xmlns:dc="http://purl.org/dc/elements/1.1/"
   xmlns:cc="http://creativecommons.org/ns#"
   xmlns:rdf="http://www.w3.org/1999/02/22-rdf-syntax-ns#"
   xmlns:svg="http://www.w3.org/2000/svg"
   xmlns="http://www.w3.org/2000/svg"
   xmlns:sodipodi="http://sodipodi.sourceforge.net/DTD/sodipodi-0.dtd"
   xmlns:inkscape="http://www.inkscape.org/namespaces/inkscape"
   id="svg1923"
   sodipodi:version="0.32"
   inkscape:version="0.48.4 r9939"
   width="56"
   height="87"
   version="1.0"
   sodipodi:docname="Arda.Tengwar.svg">
  <metadata
     id="metadata1928">
    <rdf:RDF>
      <cc:Work
         rdf:about="">
        <dc:format>image/svg+xml</dc:format>
        <dc:type
           rdf:resource="http://purl.org/dc/dcmitype/StillImage" />
        <dc:title></dc:title>
      </cc:Work>
    </rdf:RDF>
  </metadata>
  <defs
     id="defs1926" />
  <sodipodi:namedview
     inkscape:window-height="1041"
     inkscape:window-width="1920"
     inkscape:pageshadow="2"
     inkscape:pageopacity="0.0"
     guidetolerance="10.0"
     gridtolerance="10.0"
     objecttolerance="10.0"
     borderopacity="1.0"
     bordercolor="#666666"
     pagecolor="#ffffff"
     id="base"
     inkscape:zoom="6.4045995"
     inkscape:cx="24.803724"
     inkscape:cy="51.008121"
     inkscape:window-x="0"
     inkscape:window-y="0"
     inkscape:current-layer="svg1923"
     showgrid="false"
     inkscape:window-maximized="1" />
  <path
     sodipodi:type="arc"
     style="fill:#000000;fill-opacity:1"
     id="path3035"
     sodipodi:cx="-28.807423"
     sodipodi:cy="-3.0134349"
     sodipodi:rx="13.037505"
     sodipodi:ry="13.037505"
     d="m -15.769917,-3.0134349 a 13.037505,13.037505 0 1 1 -26.075011,0 13.037505,13.037505 0 1 1 26.075011,0 z"
     transform="matrix(1.8502994,0,0,1.8502994,19.498525,35.19512)" />
  <path
     style="fill:#ffffff;fill-opacity:1;stroke:none"
     d="m -41.606087,11.823549 c -0.753063,0 -1.361853,0.60879 -1.361853,1.361853 0,0.753062 0.60879,1.361852 1.361853,1.361852 0.753062,0 1.361852,-0.60879 1.361852,-1.361852 0,-0.753063 -0.60879,-1.361853 -1.361852,-1.361853 z m 11.218431,0 c -0.753062,0 -1.361854,0.60879 -1.361854,1.361853 0,0.753062 0.608792,1.361852 1.361854,1.361852 0.753062,0 1.361851,-0.60879 1.361853,-1.361852 0,-0.753063 -0.608791,-1.361853 -1.361853,-1.361853 z m -13.389305,4.274331 c -0.753063,0 -1.375338,0.60879 -1.375338,1.361852 0,0.753063 0.622275,1.375336 1.375338,1.375336 0.753062,0 1.361852,-0.622273 1.361852,-1.375336 0,-0.753062 -0.60879,-1.361852 -1.361852,-1.361852 z m 4.368716,0 c -0.753062,0 -1.375338,0.60879 -1.375338,1.361852 0,0.753063 0.622274,1.375336 1.375338,1.375336 0.753062,0 1.361851,-0.622273 1.361853,-1.375336 0,-0.753062 -0.608791,-1.361852 -1.361853,-1.361852 z m 6.849714,0 c -0.753063,0 -1.375335,0.60879 -1.375337,1.361852 0,0.753063 0.622274,1.375336 1.375337,1.375336 0.753062,0 1.361852,-0.622273 1.361852,-1.375336 0,-0.753062 -0.608789,-1.361852 -1.361852,-1.361852 z m 4.368716,0 c -0.753063,0 -1.375336,0.60879 -1.375336,1.361852 0,0.753063 0.622273,1.375336 1.375336,1.375336 0.753062,0 1.361852,-0.622273 1.361852,-1.375336 0,-0.753062 -0.608788,-1.361852 -1.361852,-1.361852 z m -14.912963,5.096835 0,6.930617 c 0,3.95328 -0.190235,7.290646 -0.44496,7.766607 -0.414303,0.774128 -0.289866,0.835988 1.739394,0.835988 2.029262,0 2.153699,-0.06187 1.739397,-0.835988 -0.247448,-0.462364 -0.444961,-3.552642 -0.444961,-6.930619 0,-3.377974 0.197513,-6.468254 0.444961,-6.930617 0.407298,-0.761043 0.293229,-0.835988 -1.294434,-0.835988 l -1.739397,0 z m 8.009314,0 c -0.578468,0.0245 -1.198145,0.506508 -2.063005,1.321401 -1.360593,1.281986 -1.378646,1.327473 -0.337092,1.119148 1.002393,-0.200495 1.250415,0.138659 3.54621,4.800193 l 2.467516,5.015934 -3.222602,3.316988 c -3.002386,3.085237 -3.934079,4.705808 -2.710222,4.705808 0.773603,0 2.470687,-1.748726 2.251776,-2.319194 -0.105671,-0.275379 0.851962,-1.528545 2.130422,-2.791124 l 2.33268,-2.305712 0.283157,1.17308 c 0.254196,1.012794 -0.039,1.522768 -2.305712,3.883304 -2.386853,2.485661 -2.615835,2.883591 -2.615835,4.624906 0,1.93963 0.702947,2.977106 2.804608,4.139493 1.130073,0.625022 5.190543,0.631896 6.391269,0.0135 1.394882,-0.718409 2.88551,-2.172838 2.88551,-2.818091 0,-0.407213 -0.392804,-0.332349 -1.402303,0.283158 -2.232615,1.361251 -5.037672,0.979237 -7.11939,-0.970827 -1.779776,-1.667216 -1.320657,-2.961067 2.534934,-7.119389 5.073865,-5.472253 7.742468,-11.597055 6.472172,-14.885995 -0.389956,-1.009644 -0.716763,-1.186565 -2.130423,-1.186565 -1.227394,0 -1.925183,0.284381 -2.696738,1.105663 l -1.051729,1.119146 1.267467,-0.148321 c 1.745408,-0.193736 2.515854,1.284611 2.170875,4.139494 -0.244476,2.023175 -1.512608,5.127383 -2.292227,5.609215 -0.203901,0.126013 -1.705289,-2.481857 -3.343956,-5.784503 -2.198156,-4.430266 -3.143013,-6.087458 -4.247362,-6.040694 z"
     id="path1968"
     inkscape:connector-curvature="0" />
  <path
     sodipodi:type="arc"
     style="fill:#000000;fill-opacity:1"
     id="path3035-9"
     sodipodi:cx="-28.807423"
     sodipodi:cy="-3.0134349"
     sodipodi:rx="13.037505"
     sodipodi:ry="13.037505"
     d="m -15.769917,-3.0134349 a 13.037505,13.037505 0 1 1 -26.075011,0 13.037505,13.037505 0 1 1 26.075011,0 z"
     transform="matrix(0.83233532,0,0,0.83233532,36.780733,15.34274)" />
  <path
     style="fill:#ffffff;fill-opacity:1;stroke:none"
     d="m 9.2935459,4.618604 c -0.3387565,0 -0.6126135,0.273857 -0.6126135,0.6126135 0,0.338756 0.273857,0.612613 0.6126135,0.612613 0.3387561,0 0.612613,-0.273857 0.612613,-0.612613 0,-0.3387565 -0.2738569,-0.6126135 -0.612613,-0.6126135 z m 5.0464791,0 c -0.338757,0 -0.612614,0.273857 -0.612614,0.6126135 0,0.338756 0.273857,0.612613 0.612614,0.612613 0.338756,0 0.612612,-0.273857 0.612613,-0.612613 0,-0.3387565 -0.273857,-0.6126135 -0.612613,-0.6126135 z M 8.3170039,6.5413618 c -0.3387565,0 -0.6186795,0.273857 -0.6186795,0.612613 0,0.3387565 0.279923,0.6186786 0.6186795,0.6186786 0.338756,0 0.612613,-0.2799221 0.612613,-0.6186786 0,-0.338756 -0.273857,-0.612613 -0.612613,-0.612613 z m 1.9652151,0 c -0.3387559,0 -0.6186794,0.273857 -0.6186794,0.612613 0,0.3387565 0.2799226,0.6186786 0.6186794,0.6186786 0.338756,0 0.612613,-0.2799221 0.612614,-0.6186786 0,-0.338756 -0.273858,-0.612613 -0.612614,-0.612613 z m 3.081263,0 c -0.338756,0 -0.618678,0.273857 -0.618679,0.612613 0,0.3387565 0.279923,0.6186786 0.618679,0.6186786 0.338756,0 0.612613,-0.2799221 0.612613,-0.6186786 0,-0.338756 -0.273856,-0.612613 -0.612613,-0.612613 z m 1.965215,0 c -0.338756,0 -0.618678,0.273857 -0.618678,0.612613 0,0.3387565 0.279922,0.6186786 0.618678,0.6186786 0.338756,0 0.612613,-0.2799221 0.612613,-0.6186786 0,-0.338756 -0.273856,-0.612613 -0.612613,-0.612613 z m -6.7084198,2.292751 0,3.1176562 c 0,1.778336 -0.085575,3.279611 -0.20016,3.493716 -0.1863693,0.348233 -0.1303928,0.37606 0.7824458,0.37606 0.91284,0 0.968816,-0.02783 0.7824472,-0.37606 -0.1113116,-0.207989 -0.2001605,-1.598114 -0.2001605,-3.117657 0,-1.519541 0.088849,-2.9096674 0.2001605,-3.1176559 C 10.168228,8.8678259 10.116916,8.8341128 9.4027243,8.8341128 l -0.7824471,0 z m 3.6028948,0 c -0.260217,0.011021 -0.538971,0.2278466 -0.928018,0.5944166 -0.612047,0.5766866 -0.620168,0.5971476 -0.151637,0.5034355 0.450915,-0.09019 0.562485,0.062374 1.595221,2.1593101 l 1.109983,2.256359 -1.44965,1.492107 c -1.350588,1.387858 -1.769699,2.116853 -1.219161,2.116853 0.347996,0 1.111409,-0.786644 1.012935,-1.043262 -0.04753,-0.123876 0.383245,-0.687598 0.958345,-1.255555 l 1.049328,-1.037197 0.127375,0.527696 c 0.114347,0.455594 -0.01754,0.684999 -1.037197,1.746859 -1.073698,1.118145 -1.176702,1.297149 -1.176702,2.080459 0,0.87252 0.316212,1.339216 1.261619,1.862102 0.50835,0.281159 2.334905,0.284251 2.875037,0.0061 0.627471,-0.323168 1.298013,-0.977426 1.298013,-1.267685 0,-0.18318 -0.176699,-0.149503 -0.63081,0.127375 -1.004315,0.612343 -2.266137,0.440498 -3.202573,-0.436715 -0.800611,-0.749977 -0.594082,-1.332001 1.14031,-3.202573 2.282418,-2.461628 3.482858,-5.216798 2.91143,-6.6962888 C 17.591603,8.9137058 17.444593,8.83412 16.808674,8.83412 c -0.552128,0 -0.86602,0.1279254 -1.213095,0.4973694 l -0.473108,0.5034346 0.570155,-0.066721 c 0.785151,-0.08715 1.131727,0.5778675 0.976542,1.8621025 -0.109974,0.910101 -0.680429,2.306493 -1.031131,2.523239 -0.09172,0.05669 -0.767104,-1.116434 -1.504239,-2.60209 C 13.144983,9.558552 12.719951,8.8130837 12.223172,8.83412 z"
     id="path1968-2"
     inkscape:connector-curvature="0" />
  <g
     id="g3117"
     transform="translate(-0.31227558,1.4052401)"
     inkscape:export-xdpi="266.75232"
     inkscape:export-ydpi="266.75232">
    <g
       id="g3112">
      <path
         sodipodi:type="arc"
         style="fill:#000000;fill-opacity:1"
         id="path3035-8"
         sodipodi:cx="-28.807423"
         sodipodi:cy="-3.0134349"
         sodipodi:rx="13.037505"
         sodipodi:ry="13.037505"
         d="m -15.769917,-3.0134349 c 0,7.2004153 -5.83709,13.0375049 -13.037506,13.0375049 -7.200415,0 -13.037505,-5.8370896 -13.037505,-13.0375049 0,-7.2004151 5.83709,-13.0375051 13.037505,-13.0375051 7.200416,0 13.037506,5.83709 13.037506,13.0375051 z"
         transform="matrix(1.8502994,0,0,1.8502994,81.875572,58.381581)" />
      <path
         sodipodi:type="arc"
         style="fill:#ffffff;fill-opacity:1"
         id="path3035-8-4"
         sodipodi:cx="-28.807423"
         sodipodi:cy="-3.0134349"
         sodipodi:rx="13.037505"
         sodipodi:ry="13.037505"
         d="m -15.769917,-3.0134349 c 0,7.2004153 -5.83709,13.0375049 -13.037506,13.0375049 -7.200415,0 -13.037505,-5.8370896 -13.037505,-13.0375049 0,-7.2004151 5.83709,-13.0375051 13.037505,-13.0375051 7.200416,0 13.037506,5.83709 13.037506,13.0375051 z"
         transform="matrix(1.5868264,0,0,1.5868264,74.285594,57.587622)" />
      <path
         style="fill:#000000;fill-opacity:1;stroke:none"
         d="m 21.695105,36.704917 c -0.663865,0 -1.200546,0.536681 -1.200546,1.200548 0,0.663865 0.536681,1.200546 1.200546,1.200546 0.663864,0 1.200546,-0.536681 1.200546,-1.200546 0,-0.663867 -0.536682,-1.200548 -1.200546,-1.200548 z m 9.889653,0 c -0.663866,0 -1.200547,0.536681 -1.200547,1.200548 0,0.663865 0.536681,1.200546 1.200547,1.200546 0.663865,0 1.200545,-0.536681 1.200546,-1.200546 0,-0.663867 -0.536681,-1.200548 -1.200546,-1.200548 z m -11.803396,3.768055 c -0.663865,0 -1.212434,0.536681 -1.212434,1.200547 0,0.663866 0.548569,1.212433 1.212434,1.212433 0.663865,0 1.200546,-0.548567 1.200546,-1.212433 0,-0.663866 -0.536681,-1.200547 -1.200546,-1.200547 z m 3.851258,0 c -0.663864,0 -1.212434,0.536681 -1.212434,1.200547 0,0.663866 0.54857,1.212433 1.212434,1.212433 0.663865,0 1.200546,-0.548567 1.200548,-1.212433 0,-0.663866 -0.536683,-1.200547 -1.200548,-1.200547 z m 6.038394,0 c -0.663865,0 -1.212432,0.536681 -1.212434,1.200547 0,0.663866 0.548569,1.212433 1.212434,1.212433 0.663865,0 1.200546,-0.548567 1.200546,-1.212433 0,-0.663866 -0.53668,-1.200547 -1.200546,-1.200547 z m 3.851258,0 c -0.663864,0 -1.212432,0.536681 -1.212432,1.200547 0,0.663866 0.548568,1.212433 1.212432,1.212433 0.663865,0 1.200546,-0.548567 1.200546,-1.212433 0,-0.663866 -0.536679,-1.200547 -1.200546,-1.200547 z m -13.14658,4.493135 0,6.109713 c 0,3.48503 -0.167712,6.427099 -0.392256,6.846683 -0.365232,0.682438 -0.255533,0.736971 1.533368,0.736971 1.788905,0 1.898602,-0.05454 1.533374,-0.736971 -0.21814,-0.407599 -0.392258,-3.131845 -0.392258,-6.109715 0,-2.977864 0.17412,-5.702113 0.392258,-6.10971 0.359053,-0.670903 0.258496,-0.736971 -1.141114,-0.736971 l -1.533372,0 z m 7.060641,0 c -0.509951,0.02159 -1.05623,0.446516 -1.81865,1.164887 -1.199437,1.13014 -1.215352,1.170238 -0.297166,0.98659 0.883665,-0.176747 1.102311,0.122226 3.126177,4.231629 l 2.175249,4.421817 -2.840899,2.924103 c -2.646766,2.719804 -3.468103,4.148425 -2.389206,4.148425 0.681972,0 2.178043,-1.541597 1.985062,-2.044495 -0.09314,-0.242761 0.751051,-1.347494 1.878082,-2.460528 l 2.056382,-2.032609 0.249619,1.034133 c 0.224087,0.892834 -0.03437,1.342402 -2.032609,3.423343 -2.10414,2.191245 -2.305999,2.542041 -2.305999,4.077105 0,1.709889 0.619685,2.624479 2.472412,3.649186 0.996221,0.550992 4.575745,0.557051 5.63425,0.01195 1.229662,-0.633317 2.543733,-1.915476 2.543733,-2.484301 0,-0.35898 -0.34628,-0.292982 -1.236207,0.24962 -1.96817,1.200016 -4.44098,0.863249 -6.276126,-0.855837 -1.568968,-1.46974 -1.164231,-2.61034 2.234681,-6.276126 4.472886,-4.824086 6.825406,-10.22343 5.705571,-13.122807 -0.343768,-0.89011 -0.631867,-1.046076 -1.878086,-1.046076 -1.082012,0 -1.697151,0.250699 -2.377318,0.974703 l -0.927156,0.986587 1.11734,-0.130752 c 1.538671,-0.170789 2.217861,1.132455 1.913743,3.649188 -0.215518,1.783538 -1.333447,4.520066 -2.020721,4.944826 -0.179746,0.111096 -1.503305,-2.187891 -2.947879,-5.099351 -1.937794,-3.905519 -2.770735,-5.366423 -3.744279,-5.325199 z"
         id="path1968-2-6"
         inkscape:connector-curvature="0" />
    </g>
  </g>
</svg>
